<?xml version="1.0" encoding="UTF-8" standalone="no"?>
<!DOCTYPE svg PUBLIC "-//W3C//DTD SVG 1.1//EN" "http://www.w3.org/Graphics/SVG/1.1/DTD/svg11.dtd">
<svg width="100%" height="100%" viewBox="0 0 256 256" version="1.1" xmlns="http://www.w3.org/2000/svg" xmlns:xlink="http://www.w3.org/1999/xlink" xml:space="preserve" xmlns:serif="http://www.serif.com/" style="fill-rule:evenodd;clip-rule:evenodd;stroke-linejoin:round;stroke-miterlimit:2;">
    <g transform="matrix(0.37013,0,0,0.368947,128.291,22.5009)">
        <path d="M0,0C0.91,0.001 1.82,0.003 2.758,0.005C30.985,0.087 58.619,3.463 85.5,12.313C86.392,12.602 87.284,12.891 88.204,13.189C122.16,24.35 152.583,41.052 180.5,63.313C181.098,63.779 181.696,64.246 182.312,64.727C190.528,71.144 197.866,78.478 205.25,85.813C205.741,86.298 206.231,86.783 206.737,87.283C213.453,93.943 219.643,100.881 225.5,108.313C225.976,108.904 226.452,109.495 226.943,110.104C238.745,124.774 248.831,140.613 257.5,157.313C257.85,157.985 258.2,158.658 258.561,159.352C271.261,184.133 279.748,211.906 284.5,239.313C284.726,240.592 284.726,240.592 284.958,241.897C290.124,272.547 289.047,304.835 283.5,335.313C283.11,337.595 282.721,339.878 282.332,342.16C279.976,355.525 276.839,368.455 272.5,381.313C272.174,382.303 272.174,382.303 271.842,383.313C265.703,401.77 256.675,419.77 246.5,436.313C245.477,437.989 245.477,437.989 244.434,439.699C228.245,465.777 207.092,490.859 182.5,509.313C181.352,510.211 180.205,511.111 179.059,512.012C153.146,532.157 124.302,548.06 93.5,559.313C92.767,559.584 92.035,559.855 91.28,560.135C75.609,565.883 58.983,569.752 42.5,572.313C41.639,572.449 40.779,572.586 39.892,572.727C8.736,577.516 -24.679,577.208 -55.5,570.313C-56.789,570.048 -58.078,569.784 -59.406,569.512C-102.463,560.39 -143.361,539.837 -177.5,512.313C-178.08,511.85 -178.66,511.387 -179.257,510.91C-193.851,499.177 -207.419,485.603 -219.5,471.313C-220.027,470.693 -220.553,470.073 -221.096,469.434C-228.92,460.146 -236.054,450.604 -242.5,440.313C-242.881,439.706 -243.262,439.099 -243.655,438.474C-246.36,434.138 -248.957,429.746 -251.5,425.313C-251.864,424.682 -252.229,424.052 -252.604,423.402C-268.15,396.236 -278.848,364.277 -283.5,333.313C-283.674,332.221 -283.849,331.129 -284.029,330.004C-285.756,318.03 -285.852,306.145 -285.813,294.063C-285.812,293.009 -285.811,291.955 -285.81,290.869C-285.739,251.496 -285.739,251.496 -280.5,234.313C-280.198,232.568 -279.927,230.817 -279.688,229.063C-276.2,207.465 -268.844,186.045 -259.5,166.313C-259.05,165.349 -259.05,165.349 -258.591,164.367C-246.442,138.52 -229.856,115.224 -210.379,94.418C-207.161,90.972 -204.079,87.414 -201.023,83.824C-199.5,82.313 -199.5,82.313 -197.5,82.313C-197.005,80.828 -197.005,80.828 -196.5,79.313C-195.004,77.805 -195.004,77.805 -193.063,76.188C-190.018,73.619 -187.087,70.981 -184.188,68.25C-158.832,45.453 -127.463,27.833 -95.5,16.313C-94.747,16.039 -93.994,15.765 -93.218,15.482C-63.112,4.653 -31.929,-0.13 0,0Z" style="fill:rgb(1,42,73);fill-rule:nonzero;"/>
    </g>
    <g transform="matrix(0.37013,0,0,0.368947,144.021,34.0535)">
        <path d="M0,0C1.011,0.166 2.023,0.333 3.065,0.504C65.435,11.077 125.307,44.432 163,96C163.834,97.116 164.669,98.232 165.504,99.348C185.548,126.462 201.126,157.439 210,190C210.266,190.971 210.266,190.971 210.537,191.962C216.031,212.422 217.449,232.763 217.188,253.875C217.172,256.039 217.159,258.203 217.146,260.367C217.114,265.578 217.063,270.789 217,276C167.82,276.017 118.641,276.033 69.461,276.042C68.734,276.042 68.006,276.043 67.257,276.043C51.453,276.046 35.649,276.049 19.845,276.051C12.095,276.052 4.346,276.054 -3.404,276.055L-5.741,276.055C-30.761,276.06 -55.781,276.067 -80.801,276.076C-106.501,276.086 -132.202,276.092 -157.902,276.094C-161.528,276.094 -165.153,276.095 -168.779,276.095L-170.942,276.095C-182.453,276.096 -193.964,276.101 -205.475,276.107C-217.033,276.113 -228.592,276.115 -240.15,276.114C-246.418,276.113 -252.687,276.114 -258.955,276.119C-264.683,276.124 -270.412,276.124 -276.14,276.121C-278.222,276.12 -280.304,276.122 -282.386,276.125C-285.197,276.129 -288.008,276.127 -290.818,276.123C-291.644,276.126 -292.469,276.128 -293.319,276.131C-298.886,276.114 -298.886,276.114 -300,275C-300.114,272.495 -300.164,270.018 -300.168,267.512C-300.174,266.363 -300.174,266.363 -300.181,265.191C-300.191,262.69 -300.191,260.189 -300.188,257.688C-300.187,256.839 -300.186,255.991 -300.186,255.117C-300.147,235.205 -298.079,216.494 -294,197C-293.646,195.229 -293.646,195.229 -293.285,193.422C-288.181,169.382 -277.842,145.874 -265,125C-264.637,124.407 -264.274,123.814 -263.9,123.204C-261.353,119.077 -258.71,115.021 -256,111C-255.618,110.431 -255.235,109.861 -254.841,109.275C-245.37,95.295 -234.257,83.095 -222.375,71.125C-221.517,70.257 -220.658,69.39 -219.774,68.496C-213.825,62.576 -207.576,57.21 -201,52C-200.294,51.43 -199.588,50.859 -198.861,50.271C-143.84,5.935 -69.397,-11.633 0,0Z" style="fill:rgb(113,207,231);fill-rule:nonzero;"/>
    </g>
    <g transform="matrix(0.37013,0,0,0.368947,34.092,142.155)">
        <path d="M0,0L511,0C507.955,27.402 499.094,52.9 488,78C483.433,78.075 478.866,78.129 474.298,78.165C472.751,78.18 471.204,78.2 469.658,78.226C456.04,78.452 443.771,76.787 430.75,72.563C430.081,72.348 429.411,72.133 428.722,71.912C425.003,70.707 421.339,69.394 417.688,68C412.662,66.131 407.55,64.699 402.375,63.313C401.587,63.098 400.799,62.883 399.987,62.662C394.671,61.272 389.473,60.449 384,60C382.735,59.887 381.471,59.773 380.168,59.656C366.598,59.124 354.314,62.521 341.302,66.101C306.875,75.476 275.821,73.558 243,60C205.723,44.638 162.559,33.839 123.411,50.073C122.443,50.485 121.474,50.896 120.477,51.32C113.609,54.219 106.616,56.659 99.563,59.063C98.342,59.483 97.122,59.904 95.865,60.338C92.25,61.578 88.627,62.794 85,64C83.395,64.541 83.395,64.541 81.757,65.093C66.859,69.928 53.062,71.446 37.5,71.188C35.887,71.172 34.273,71.159 32.66,71.146C28.773,71.114 24.887,71.063 21,71C16.645,62.814 13.232,54.628 10.375,45.813C9.988,44.636 9.601,43.46 9.203,42.249C6.289,33.243 3.965,24.254 2,15C1.471,13.056 0.94,11.113 0.383,9.177C-0.147,6.161 0,3.061 0,0Z" style="fill:rgb(39,166,206);fill-rule:nonzero;"/>
    </g>
    <g transform="matrix(0.37013,0,0,0.368947,116.261,169.457)">
        <path d="M0,0C0.998,0.418 1.996,0.836 3.025,1.267C5.103,2.137 7.181,3.008 9.258,3.88C10.287,4.312 11.315,4.743 12.375,5.188C13.906,5.83 13.906,5.83 15.468,6.485C23.22,9.719 30.909,12.704 39,15C39.943,15.29 39.943,15.29 40.906,15.585C62.729,22.123 90.272,21.563 112,15C113.461,14.575 114.922,14.151 116.383,13.727C118.547,13.091 120.71,12.45 122.869,11.797C147.035,4.53 167.127,7.012 190.875,14C211.842,20.133 232.286,21.796 254,23L254,25L252,25C251.776,25.677 251.551,26.354 251.32,27.051C249.63,30.826 247.352,33.892 244.875,37.188C244.378,37.855 243.881,38.522 243.368,39.209C241.92,41.145 240.461,43.073 239,45C238.004,46.325 238.004,46.325 236.988,47.676C231.424,54.858 225.21,61.526 218.869,68.028C217.553,69.417 216.289,70.856 215.066,72.328C208.813,79.445 202.557,81.179 193.438,83C191.524,83.427 191.524,83.427 189.572,83.863C173.349,87.416 157.541,87.322 141,87C140.184,86.987 139.368,86.974 138.527,86.96C121.029,86.451 102.535,78.06 86.434,71.641C54.378,58.91 15.268,58.57 -16.875,71.875C-18.114,72.382 -18.114,72.382 -19.379,72.898C-21.203,73.665 -23.023,74.442 -24.84,75.227C-35.241,79.682 -45.697,82.826 -56.75,85.188C-57.53,85.355 -58.31,85.522 -59.114,85.694C-80.181,90.023 -102.238,89.447 -123,84C-124.574,83.622 -126.148,83.245 -127.723,82.867C-135.991,80.78 -142.169,78.435 -148,72C-149.366,70.662 -150.732,69.324 -152.104,67.991C-167.097,53.302 -180.4,36.122 -191,18L-191,16C-190.409,15.991 -189.818,15.981 -189.209,15.972C-158.299,15.367 -131.954,8.88 -103.43,-2.414C-97.211,-4.869 -91.181,-6.932 -84.625,-8.25C-83.884,-8.41 -83.143,-8.57 -82.379,-8.734C-53.874,-14.767 -26.496,-11.144 0,0Z" style="fill:rgb(39,166,206);fill-rule:nonzero;"/>
    </g>
    <g transform="matrix(0.37013,0,0,0.368947,151.312,205.208)">
        <path d="M0,0C7.015,2.804 13.988,5.196 21.302,7.1C21.985,7.29 22.667,7.48 23.371,7.677C39.815,12.153 56.416,11.509 73.302,11.1C69.264,15.638 63.491,17.911 58.177,20.662C57.58,20.972 56.983,21.281 56.369,21.6C39.102,30.515 21.067,37.973 2.302,43.1C0.438,43.616 0.438,43.616 -1.464,44.143C-32.507,52.311 -67.928,54.768 -99.698,49.1C-100.687,48.927 -101.676,48.755 -102.696,48.577C-135.777,42.607 -169.292,31.432 -197.698,13.1C-198.028,12.44 -198.358,11.78 -198.698,11.1C-197.227,11.131 -197.227,11.131 -195.727,11.163C-167.939,11.703 -145.672,9.224 -119.671,-1.146C-78.397,-17.598 -40.814,-16.372 0,0Z" style="fill:rgb(39,166,206);fill-rule:nonzero;"/>
    </g>
    <g transform="matrix(0.37013,0,0,0.368947,177.67,61.232)">
        <path d="M0,0C0.783,0.665 0.783,0.665 1.582,1.344C2.551,2.066 3.521,2.788 4.52,3.531C16.794,14.043 24.681,28.903 28.582,44.344C28.918,45.458 28.918,45.458 29.262,46.594C34.811,66.663 28.245,87.615 19.027,105.332C7.689,124.821 -12.122,136.569 -33.418,142.344C-34.02,142.516 -34.622,142.689 -35.242,142.867C-55.198,147.238 -76.355,141.721 -93.418,131.344C-112.044,119.298 -124.855,101.665 -129.96,80.049C-132.372,65.803 -132.473,47.666 -126.418,34.344C-126.007,33.438 -126.007,33.438 -125.588,32.513C-121.382,23.46 -116.142,15.759 -109.418,8.344C-108.891,7.724 -108.364,7.104 -107.82,6.465C-80.737,-23.389 -30.607,-25.072 0,0Z" style="fill:rgb(235,170,49);fill-rule:nonzero;"/>
    </g>
    <g transform="matrix(0.37013,0,0,0.368947,177.67,61.232)">
        <path d="M0,0C0.783,0.665 0.783,0.665 1.582,1.344C2.551,2.066 3.521,2.788 4.52,3.531C16.794,14.043 24.681,28.903 28.582,44.344C28.918,45.458 28.918,45.458 29.262,46.594C34.811,66.663 28.245,87.615 19.027,105.332C7.689,124.821 -12.122,136.569 -33.418,142.344C-34.02,142.516 -34.622,142.689 -35.242,142.867C-55.198,147.238 -76.355,141.721 -93.418,131.344C-112.044,119.298 -124.855,101.665 -129.96,80.049C-132.372,65.803 -132.473,47.666 -126.418,34.344C-126.007,33.438 -126.007,33.438 -125.588,32.513C-121.382,23.46 -116.142,15.759 -109.418,8.344C-108.891,7.724 -108.364,7.104 -107.82,6.465C-80.737,-23.389 -30.607,-25.072 0,0ZM-89.418,13.344C-90.293,14.011 -91.169,14.679 -92.07,15.367C-102.457,23.978 -109.151,35.297 -112.418,48.344C-112.607,49.098 -112.797,49.852 -112.992,50.629C-115.584,67.152 -113.004,84.422 -103.418,98.344C-100.607,101.885 -97.608,105.143 -94.418,108.344C-93.815,108.97 -93.211,109.597 -92.59,110.242C-80.319,122.033 -64.131,126.917 -47.438,126.905C-34.318,126.428 -21.794,121.249 -11.418,113.344C-10.717,112.835 -10.015,112.325 -9.293,111.801C0.911,103.729 10.237,89.189 12.582,76.344C12.916,72.112 12.952,67.9 12.957,63.656C12.994,61.994 12.994,61.994 13.031,60.299C13.089,43.766 5.916,29.799 -5.496,18.141C-19.406,4.526 -35.277,-0.122 -54.267,-0.088C-68.174,0.175 -78.376,4.897 -89.418,13.344Z" style="fill:rgb(2,40,72);fill-rule:nonzero;"/>
    </g>
</svg>
